<svg width="100%" height="100%" id="svg" viewBox="0 0 1440 600" xmlns="http://www.w3.org/2000/svg" class="transition duration-300 ease-in-out delay-150"><defs><linearGradient id="gradient" x1="0%" y1="50%" x2="100%" y2="50%"><stop offset="5%" stop-color="#002bdc88"></stop><stop offset="95%" stop-color="#32ded488"></stop></linearGradient></defs><path d="M 0,600 C 0,600 0,200 0,200 C 125.27272727272728,200.47846889952154 250.54545454545456,200.95693779904306 338,224 C 425.45454545454544,247.04306220095694 475.0909090909091,292.6507177033493 564,268 C 652.9090909090909,243.34928229665073 781.0909090909091,148.44019138755976 892,125 C 1002.9090909090909,101.55980861244022 1096.5454545454545,149.5885167464115 1185,174 C 1273.4545454545455,198.4114832535885 1356.7272727272727,199.20574162679424 1440,200 C 1440,200 1440,600 1440,600 Z" stroke="none" stroke-width="0" fill="url(#gradient)" class="transition-all duration-300 ease-in-out delay-150 path-0"></path><defs><linearGradient id="gradient" x1="0%" y1="50%" x2="100%" y2="50%"><stop offset="5%" stop-color="#002bdcff"></stop><stop offset="95%" stop-color="#32ded4ff"></stop></linearGradient></defs><path d="M 0,600 C 0,600 0,400 0,400 C 98.44019138755979,388.22966507177034 196.88038277511959,376.4593301435407 287,366 C 377.1196172248804,355.5406698564593 458.91866028708137,346.39234449760767 562,351 C 665.0813397129186,355.60765550239233 789.4449760765549,373.9712918660287 895,375 C 1000.5550239234451,376.0287081339713 1087.3014354066986,359.7224880382775 1175,361 C 1262.6985645933014,362.2775119617225 1351.3492822966507,381.1387559808612 1440,400 C 1440,400 1440,600 1440,600 Z" stroke="none" stroke-width="0" fill="url(#gradient)" class="transition-all duration-300 ease-in-out delay-150 path-1"></path></svg>